<svg xmlns="http://www.w3.org/2000/svg" viewBox="0 0 96 96" role="img" aria-label="Aviators preview">
  <defs>
    <linearGradient id="bg" x1="0" y1="0" x2="1" y2="1">
      <stop offset="0" stop-color="#f8d66d"/>
      <stop offset="1" stop-color="#1c5f8f"/>
    </linearGradient>
  </defs>
  <rect width="96" height="96" rx="16" fill="url(#bg)"/>
  <circle cx="48" cy="48" r="30" fill="#f7c99a"/>
  <path d="M22 42h23v8c0 7-5 12-12 12s-12-5-12-12v-6c0-1 1-2 1-2Zm29 0h23c1 0 1 1 1 2v6c0 7-5 12-12 12s-12-5-12-12v-8Z" fill="#172033"/>
  <path d="M45 46h6" stroke="#172033" stroke-width="4" stroke-linecap="round"/>
  <path d="M30 47h10M56 47h10" stroke="#5ec7ff" stroke-width="3" stroke-linecap="round" opacity=".7"/>
  <path d="M37 72c5 4 17 4 22 0" stroke="#9a4f38" stroke-width="4" stroke-linecap="round" fill="none"/>
</svg>
