<svg xmlns="http://www.w3.org/2000/svg" viewBox="0 0 96 96" role="img" aria-label="Lion preview">
  <rect width="96" height="96" rx="16" fill="#2d1d0f"/>
  <path d="M48 9 58 22 74 18 75 35 88 45 76 57 78 74 61 73 48 87 35 73 18 74 20 57 8 45 21 35 22 18 38 22Z" fill="#d9822b"/>
  <circle cx="48" cy="49" r="25" fill="#f3bd68"/>
  <circle cx="38" cy="45" r="4" fill="#2d1d0f"/>
  <circle cx="58" cy="45" r="4" fill="#2d1d0f"/>
  <path d="M48 50 43 57h10Z" fill="#5b2f16"/>
  <path d="M34 63c7 7 21 7 28 0" stroke="#5b2f16" stroke-width="4" stroke-linecap="round" fill="none"/>
  <path d="M24 30 11 22M72 30l13-8M23 61 10 67M73 61l13 6" stroke="#f0a84e" stroke-width="5" stroke-linecap="round"/>
</svg>
